<svg width="56" height="56" viewBox="0 0 56 56" fill="none" xmlns="http://www.w3.org/2000/svg">
<g clip-path="url(#clip0_28711_67395)">
<path d="M27.8886 3.91267C23.1506 3.91267 19.9105 7.33624 19.9105 12.0742C19.9105 18.5546 24.3733 19.8384 24.3733 22.4367C24.3733 23.4148 23.3952 24.6375 21.6528 24.6375C18.8712 24.6375 17.4956 22.2533 17.3122 18.0349C17.1288 14.214 16.0284 10.6375 12.3908 10.6375C10.1288 10.6375 8.69214 12.5327 8.69214 14.214C8.69214 14.7947 8.87554 15.5589 9.08951 15.5589C9.27292 15.5589 9.36462 15.4367 9.54803 14.9782C9.88427 14 10.5873 13.4192 11.3515 13.4192C13.155 13.4192 14.0109 15.5589 14.1943 20.2052C14.3777 25.0043 17.4345 27.5109 19.6354 27.5109L19.3908 26.5939C18.4738 26.2576 17.6485 26.1353 17.0065 26.1353C14.1026 26.1353 11.8406 28.3362 9.82313 28.3362C8.14191 28.3362 7.28602 27.2358 7.28602 25.738C7.28602 25.096 7.46943 24.5153 7.92795 24.1179C8.26419 23.7816 8.78383 23.5371 9.21178 23.3537C9.45632 23.1703 9.39519 23.0786 9.15065 22.8952C8.90611 22.7118 8.50872 22.5589 7.80567 22.5589C5.94104 22.5589 4.5655 24.3624 4.5655 26.5022C4.62664 28.9476 6.52183 31.5458 9.60917 31.5458C12.8493 31.5458 14.714 29.6506 16.9454 29.6506C17.5262 29.6506 18.2904 29.7118 19.1463 29.9869C17.9236 30.3231 17.1288 30.6288 16.3646 31.2096C14.9279 32.3711 14.4083 32.9519 13.8275 34.572C13.2467 36.131 12.452 36.9563 11.3821 36.9563C9.762 36.9563 9.12008 36.0393 9.12008 33.0742C9.12008 32.6157 8.99781 32.4934 8.7227 32.4934C8.38645 32.4934 6.98035 33.7161 6.98035 35.8559C6.98035 38.2401 8.7227 40.3799 11.5655 40.3799C13.583 40.3799 15.0808 39.4017 15.9672 37.7816C16.9454 35.917 17.3428 34.9388 18.6878 34.2663C19.2685 33.9912 19.9716 33.7467 21.0109 33.8078C18.0458 36.8035 15.845 39.0655 15.845 43.2532C15.845 47.3493 18.9017 50.3144 21.8668 50.4366C24.6484 50.5589 26.3297 48.5414 26.3297 46.8602C26.3297 46.5851 26.1463 46.4017 25.9323 46.4017C25.1681 46.4017 25.0153 47.6244 22.7533 47.6244C20.5524 47.6244 19.0546 45.6681 19.0546 43.4672C19.0546 40.5021 20.5524 39.0043 23.4563 37.1703C24.9541 36.2532 26.941 34.6332 27.9803 32.9519C29.0196 34.6332 30.976 36.2532 32.5043 37.1703C35.4083 39.0349 36.9061 40.5327 36.9061 43.4672C36.9061 45.6681 35.4083 47.6244 33.2074 47.6244C30.9454 47.6244 30.762 46.4017 30.0284 46.4017C29.7838 46.4017 29.631 46.5851 29.631 46.8602C29.631 48.5414 31.3122 50.5589 34.0938 50.4366C37.0589 50.3144 40.1157 47.3799 40.1157 43.2532C40.1157 39.096 37.9148 36.834 34.9497 33.8078C35.9891 33.7467 36.6921 33.9912 37.2729 34.2663C38.6179 34.9694 39.0153 35.9476 39.9934 37.7816C40.8493 39.4017 42.3777 40.3799 44.3952 40.3799C47.2379 40.3799 48.9803 38.2401 48.9803 35.8559C48.9803 33.7161 47.6048 32.4934 47.2379 32.4934C46.9628 32.4934 46.8406 32.6157 46.8406 33.0742C46.8406 36.0393 46.1987 36.9563 44.5786 36.9563C43.5393 36.9563 42.7139 36.131 42.1331 34.572C41.5524 32.9519 41.0327 32.3711 39.596 31.2096C38.8318 30.6288 38.0371 30.3537 36.8144 29.9869C37.6703 29.7118 38.4345 29.6506 39.0152 29.6506C41.2773 29.6506 43.0808 31.5458 46.596 31.5458C49.3777 31.5458 51.334 28.9476 51.3951 26.5022C51.3951 24.3624 50.0196 22.5589 48.155 22.5589C47.4519 22.5589 47.0545 22.7423 46.81 22.8952C46.5655 23.0786 46.5349 23.1703 46.7489 23.3537C47.1462 23.5371 47.6659 23.7511 48.0327 24.1179C48.4912 24.5153 48.6746 25.096 48.6746 25.738C48.6746 27.2358 47.8187 28.3362 46.1375 28.3362C44.1201 28.3362 41.858 26.1353 38.9541 26.1353C38.3122 26.1353 37.5174 26.2576 36.5698 26.5939L36.3253 27.5109C38.5262 27.5109 41.5829 25.0349 41.7663 20.2052C41.9497 15.5895 42.8056 13.4192 44.6091 13.4192C45.3733 13.4192 46.0458 14 46.4126 14.9782C46.596 15.4367 46.6877 15.5589 46.8711 15.5589C47.1157 15.5589 47.2685 14.7947 47.2685 14.214C47.2685 12.5327 45.8318 10.6375 43.5698 10.6375C39.9323 10.6375 38.8318 14.214 38.6484 18.0349C38.465 22.2533 37.0895 24.6375 34.3078 24.6375C32.5655 24.6375 31.5873 23.4148 31.5873 22.4367C31.5873 19.8384 36.0502 18.5546 36.0502 12.0742C35.9891 7.33624 32.7489 3.91267 27.8886 3.91267ZM52.251 26.2576C52.251 39.9214 41.369 51.0174 27.8886 51.0174C14.4694 51.0174 3.58734 39.8908 3.58734 26.2576C3.58734 12.6244 14.4694 1.49781 27.8886 1.49781C41.369 1.49781 52.251 12.5939 52.251 26.2576ZM55.3995 28C55.3995 12.5327 43.1419 0 27.9192 0C12.7576 0 0.5 12.5633 0.5 28C0.5 43.4366 12.7576 55.9999 27.9192 55.9999C43.1113 56.0305 55.3995 43.4672 55.3995 28Z" fill="white"/>
</g>
<defs>
<clipPath id="clip0_28711_67395">
<rect width="56" height="56" fill="white"/>
</clipPath>
</defs>
</svg>
