<svg width="120" height="40" viewBox="0 0 120 40" fill="none" xmlns="http://www.w3.org/2000/svg">
<path d="M18.959 0.407715C29.4844 0.407816 37.9598 9.17699 37.96 19.9995C37.96 30.8008 29.4634 39.5922 18.959 39.5923C8.47563 39.5923 0 30.8009 0 19.9995C0.000207808 9.19832 8.47576 0.407715 18.959 0.407715ZM19.001 23.4653C18.2823 24.6416 16.9086 25.7749 15.873 26.4165C13.8651 27.6998 12.8291 28.748 12.8291 30.8228C12.8291 32.3627 13.865 33.7319 15.3867 33.7319C16.9508 33.7319 17.0566 32.8765 17.585 32.8765C17.7329 32.8765 17.8594 33.0043 17.8594 33.1968C17.8594 34.2698 16.8924 35.5373 15.2627 35.687C16.4456 35.9601 17.6751 36.1059 18.9375 36.106C20.219 36.106 21.4663 35.9572 22.665 35.6792C21.0804 35.4983 20.1426 34.2534 20.1426 33.1968C20.1426 33.0044 20.248 32.8766 20.417 32.8765C20.9242 32.8765 21.0512 33.7319 22.6152 33.7319C24.137 33.7319 25.1728 32.3627 25.1729 30.8228C25.1729 28.7694 24.1368 27.7212 22.1289 26.4165C21.0722 25.7749 19.7196 24.6415 19.001 23.4653ZM18.9375 1.45557C9.65897 1.45566 2.13477 9.24139 2.13477 18.7808C2.13477 25.977 6.41715 32.1739 12.5039 34.7847C11.4109 33.8994 10.6105 32.4365 10.6104 30.6733C10.6104 27.7432 12.1316 26.1599 14.1816 24.064C13.4635 24.0213 12.9776 24.1919 12.5762 24.3843C11.6462 24.8548 11.3707 25.5395 10.6943 26.8442C10.0814 27.9777 9.04619 28.6625 7.65137 28.6626C5.68574 28.6626 4.48047 27.1649 4.48047 25.4966C4.48058 23.9995 5.45307 23.144 5.68555 23.144C5.87572 23.144 5.95993 23.2296 5.95996 23.5503C5.95996 25.625 6.40422 26.2671 7.52441 26.2671C8.26413 26.2671 8.81328 25.6889 9.21484 24.5981C9.61639 23.4647 9.97641 23.0583 10.9697 22.2456C11.498 21.8394 12.0474 21.6254 12.8926 21.3901C12.3009 21.1977 11.7726 21.1548 11.3711 21.1548C9.82826 21.1548 8.539 22.4808 6.29883 22.481C4.16411 22.481 2.8538 20.6628 2.81152 18.9517C2.81161 17.4545 3.76253 16.1929 5.05176 16.1929C5.53769 16.1929 5.81239 16.2999 5.98145 16.4282C6.15042 16.5565 6.19248 16.6202 6.02344 16.7485C5.72756 16.8769 5.3682 17.0484 5.13574 17.2837C4.81887 17.5617 4.69238 17.9684 4.69238 18.4175C4.69251 19.4653 5.28403 20.2348 6.44629 20.2349C7.78045 20.2349 9.26945 18.8274 11.1533 18.7046C10.2637 17.8614 9.54127 16.4656 9.46875 14.5454C9.34191 11.2945 8.7499 9.79736 7.50293 9.79736C6.97464 9.7975 6.48831 10.2039 6.25586 10.8882C6.12916 11.2087 6.06606 11.2943 5.93945 11.2944C5.79156 11.2944 5.66416 10.7603 5.66406 10.354C5.66406 9.17765 6.65771 7.85115 8.22168 7.85107C10.7368 7.85107 11.4981 10.3534 11.625 13.0269C11.7518 15.9785 12.7026 17.647 14.626 17.647C15.8307 17.647 16.5068 16.7914 16.5068 16.1069C16.5066 14.289 13.4209 13.3902 13.4209 8.85596C13.4211 5.54092 15.6617 3.1451 18.9375 3.14502C22.298 3.14502 24.5386 5.54087 24.5811 8.85596C24.5811 13.3902 21.4953 14.289 21.4951 16.1069C21.4951 16.7913 22.1714 17.6469 23.376 17.647C25.2993 17.647 26.2511 15.9785 26.3779 13.0269C26.5048 10.3534 27.2653 7.85111 29.7803 7.85107C31.3443 7.85107 32.3379 9.17762 32.3379 10.354C32.3378 10.7599 32.2322 11.2934 32.0635 11.2944C31.9367 11.2944 31.8729 11.209 31.7461 10.8882C31.4925 10.2038 31.0274 9.79741 30.499 9.79736C29.2521 9.79736 28.66 11.3159 28.5332 14.5454C28.4609 16.4732 27.7412 17.8645 26.8545 18.7046C28.7357 18.8298 30.2229 20.2348 31.5557 20.2349C32.718 20.2349 33.3094 19.4654 33.3096 18.4175C33.3096 17.9684 33.1832 17.5617 32.8662 17.2837C32.6126 17.027 32.2533 16.8769 31.9785 16.7485C31.8307 16.6203 31.8517 16.5351 32.0205 16.4282C32.1896 16.3213 32.465 16.1929 32.9512 16.1929C34.2402 16.1932 35.1913 17.4547 35.1914 18.9517C35.1491 20.6627 33.7963 22.4808 31.873 22.481C29.4424 22.481 28.1949 21.1548 26.6309 21.1548C26.2293 21.1548 25.701 21.1977 25.1094 21.3901C25.9546 21.6467 26.5039 21.8394 27.0322 22.2456C28.0255 23.0583 28.3856 23.4647 28.7871 24.5981C29.1886 25.6888 29.759 26.2669 30.4775 26.2671C31.5977 26.2671 32.042 25.625 32.042 23.5503C32.042 23.2297 32.1264 23.1441 32.3164 23.144C32.57 23.144 33.5214 23.9995 33.5215 25.4966C33.5215 27.1649 32.3162 28.6626 30.3506 28.6626C28.9558 28.6625 27.8994 27.9777 27.3076 26.8442C26.6313 25.561 26.3566 24.8762 25.4268 24.3843C25.0252 24.1918 24.5388 24.0212 23.8203 24.064C25.8704 26.1813 27.3916 27.7646 27.3916 30.6733C27.3915 32.3839 26.6491 33.8006 25.6182 34.6899C31.6041 32.0299 35.7832 25.9051 35.7832 18.7808C35.7832 9.21994 28.2584 1.45557 18.9375 1.45557Z" fill="white"/>
<path d="M47.5315 19.2472C46.0587 19.2472 44.7532 18.9238 43.6151 18.2771C42.4904 17.6163 41.6067 16.7166 40.964 15.5778C40.3213 14.4249 40 13.1104 40 11.6341C40 10.1439 40.3213 8.82934 40.964 7.69054C41.6067 6.53769 42.4904 5.6379 43.6151 4.99117C44.7398 4.33039 46.0319 4 47.4913 4C48.9641 4 50.2629 4.33039 51.3876 4.99117C52.5123 5.6379 53.396 6.53769 54.0387 7.69054C54.6814 8.82934 55.0027 10.1439 55.0027 11.6341C55.0027 13.1104 54.6814 14.4249 54.0387 15.5778C53.4094 16.7166 52.5324 17.6163 51.4077 18.2771C50.283 18.9238 48.9909 19.2472 47.5315 19.2472ZM47.5315 15.6621C48.2545 15.6621 48.8905 15.4934 49.4395 15.156C49.9884 14.8045 50.4169 14.3265 50.7248 13.7219C51.0328 13.1174 51.1868 12.4215 51.1868 11.6341C51.1868 10.8468 51.0261 10.1509 50.7047 9.54636C50.3968 8.92775 49.9616 8.44974 49.3993 8.11232C48.8503 7.76084 48.2143 7.5851 47.4913 7.5851C46.7817 7.5851 46.1457 7.76084 45.5833 8.11232C45.0344 8.44974 44.5992 8.92775 44.2779 9.54636C43.9699 10.1509 43.816 10.8468 43.816 11.6341C43.816 12.4215 43.9766 13.1174 44.298 13.7219C44.6193 14.3265 45.0545 14.8045 45.6034 15.156C46.1658 15.4934 46.8085 15.6621 47.5315 15.6621Z" fill="white"/>
<path d="M62.7973 19.245C61.3915 19.245 60.1463 18.9222 59.0617 18.2764C57.9906 17.6167 57.1471 16.7182 56.5312 15.5812C55.9152 14.4301 55.6073 13.1105 55.6073 11.6225C55.6073 10.1345 55.9152 8.82198 56.5312 7.68492C57.1471 6.53382 57.9906 5.6354 59.0617 4.98966C60.1463 4.32989 61.3915 4 62.7973 4C63.8819 4 64.8593 4.19653 65.7296 4.58959C66.5999 4.98265 67.3497 5.53012 67.979 6.23201C68.6083 6.9339 69.0903 7.74809 69.425 8.67458L65.8903 9.85376C65.7028 9.39051 65.4618 8.99043 65.1673 8.65353C64.8727 8.30258 64.5246 8.03586 64.1229 7.85337C63.7346 7.67088 63.2928 7.57964 62.7973 7.57964C62.1413 7.57964 61.5588 7.75511 61.05 8.10605C60.5412 8.44296 60.1396 8.91323 59.845 9.51685C59.5638 10.1205 59.4232 10.8224 59.4232 11.6225C59.4232 12.4086 59.5705 13.1105 59.8651 13.7282C60.1597 14.3318 60.5613 14.8091 61.0701 15.16C61.5923 15.497 62.1881 15.6654 62.8576 15.6654C63.3798 15.6654 63.8283 15.5742 64.2032 15.3917C64.5915 15.1951 64.9196 14.9284 65.1873 14.5915C65.4685 14.2406 65.7095 13.8335 65.9104 13.3702L69.4451 14.5494C69.1238 15.4759 68.6485 16.2971 68.0192 17.013C67.3899 17.7149 66.6334 18.2624 65.7497 18.6555C64.866 19.0485 63.8819 19.245 62.7973 19.245Z" fill="white"/>
<path d="M75.6886 19.245V7.70237H70.7744V4H84.2972V7.70237H79.4041V19.245H75.6886Z" fill="white"/>
<path d="M92.5796 19.2472C91.1068 19.2472 89.8013 18.9238 88.6632 18.2771C87.5385 17.6163 86.6548 16.7166 86.0121 15.5778C85.3695 14.4249 85.0481 13.1104 85.0481 11.6341C85.0481 10.1439 85.3695 8.82934 86.0121 7.69054C86.6548 6.53769 87.5385 5.6379 88.6632 4.99117C89.7879 4.33039 91.08 4 92.5394 4C94.0122 4 95.311 4.33039 96.4357 4.99117C97.5604 5.6379 98.4441 6.53769 99.0868 7.69054C99.7295 8.82934 100.051 10.1439 100.051 11.6341C100.051 13.1104 99.7295 14.4249 99.0868 15.5778C98.4575 16.7166 97.5805 17.6163 96.4558 18.2771C95.3311 18.9238 94.039 19.2472 92.5796 19.2472ZM92.5796 15.6621C93.3026 15.6621 93.9386 15.4934 94.4876 15.156C95.0365 14.8045 95.465 14.3265 95.7729 13.7219C96.0809 13.1174 96.2349 12.4215 96.2349 11.6341C96.2349 10.8468 96.0742 10.1509 95.7529 9.54636C95.4449 8.92775 95.0097 8.44974 94.4474 8.11232C93.8984 7.76084 93.2624 7.5851 92.5394 7.5851C91.8298 7.5851 91.1938 7.76084 90.6314 8.11232C90.0825 8.44974 89.6473 8.92775 89.326 9.54636C89.018 10.1509 88.8641 10.8468 88.8641 11.6341C88.8641 12.4215 89.0247 13.1174 89.3461 13.7219C89.6674 14.3265 90.1026 14.8045 90.6515 15.156C91.2139 15.4934 91.8566 15.6621 92.5796 15.6621Z" fill="white"/>
<path d="M101.003 19.2453V4.00023H108.714C109.773 4.00023 110.711 4.22528 111.528 4.67537C112.346 5.12546 112.982 5.74978 113.438 6.54833C113.907 7.34688 114.142 8.26884 114.142 9.31422C114.142 10.3596 113.907 11.2888 113.438 12.1019C112.982 12.9004 112.346 13.532 111.528 13.9966C110.711 14.4467 109.773 14.6718 108.714 14.6718H104.722V19.2453H101.003ZM104.722 10.9694H108.613C109.123 10.9694 109.531 10.8169 109.84 10.512C110.161 10.2071 110.322 9.80787 110.322 9.31422C110.322 8.83509 110.161 8.44307 109.84 8.13817C109.531 7.83327 109.123 7.68082 108.613 7.68082H104.722V10.9694Z" fill="white"/>
<path d="M116.284 19.2453V4.00023H120V19.2453H116.284Z" fill="white"/>
<path d="M40.9385 35.9981V20.753H48.6496C49.7084 20.753 50.6466 20.9781 51.4641 21.4282C52.2816 21.8783 52.9182 22.5026 53.3739 23.3011C53.843 24.0997 54.0775 25.0216 54.0775 26.067C54.0775 27.1124 53.843 28.0416 53.3739 28.8547C52.9182 29.6532 52.2816 30.2848 51.4641 30.7494C50.6466 31.1995 49.7084 31.4246 48.6496 31.4246H44.6574V35.9981H40.9385ZM44.6574 27.7222H48.5491C49.0584 27.7222 49.4672 27.5697 49.7754 27.2648C50.0971 26.9599 50.2579 26.5607 50.2579 26.067C50.2579 25.5879 50.0971 25.1959 49.7754 24.891C49.4672 24.5861 49.0584 24.4336 48.5491 24.4336H44.6574V27.7222Z" fill="white"/>
<path d="M62.5475 36C61.0747 36 59.7692 35.6766 58.6311 35.0299C57.5064 34.3691 56.6228 33.4693 55.9801 32.3305C55.3374 31.1777 55.016 29.8632 55.016 28.3869C55.016 26.8967 55.3374 25.5821 55.9801 24.4433C56.6228 23.2905 57.5064 22.3907 58.6311 21.744C59.7558 21.0832 61.0479 20.7528 62.5073 20.7528C63.9802 20.7528 65.2789 21.0832 66.4036 21.744C67.5283 22.3907 68.412 23.2905 69.0547 24.4433C69.6974 25.5821 70.0187 26.8967 70.0187 28.3869C70.0187 29.8632 69.6974 31.1777 69.0547 32.3305C68.4254 33.4693 67.5484 34.3691 66.4237 35.0299C65.299 35.6766 64.0069 36 62.5475 36ZM62.5475 32.4149C63.2705 32.4149 63.9065 32.2462 64.4555 31.9088C65.0045 31.5573 65.4329 31.0793 65.7409 30.4747C66.0488 29.8702 66.2028 29.1743 66.2028 28.3869C66.2028 27.5996 66.0421 26.9037 65.7208 26.2991C65.4128 25.6805 64.9777 25.2025 64.4153 24.8651C63.8664 24.5136 63.2304 24.3379 62.5073 24.3379C61.7977 24.3379 61.1617 24.5136 60.5994 24.8651C60.0504 25.2025 59.6153 25.6805 59.2939 26.2991C58.986 26.9037 58.832 27.5996 58.832 28.3869C58.832 29.1743 58.9927 29.8702 59.314 30.4747C59.6353 31.0793 60.0705 31.5573 60.6195 31.9088C61.1818 32.2462 61.8245 32.4149 62.5475 32.4149Z" fill="white"/>
<path d="M73.0124 33.4062V27.7655L79.301 20.7528H84.5343L73.0124 33.4062ZM70.7726 35.9978V20.7528H74.7568V35.9978H70.7726ZM79.7748 35.9978L73.9384 28.2446L76.932 25.8926L84.7281 35.9978H79.7748Z" fill="white"/>
<path d="M86.362 35.9978V20.7528H98.6001V24.4552H90.0775V26.5677H96.5729V30.1612H90.0775V32.2955H98.7409V35.9978H86.362Z" fill="white"/>
<path d="M101.003 35.9978V20.7528H108.704C109.762 20.7528 110.699 20.9778 111.516 21.4279C112.332 21.8635 112.968 22.4733 113.424 23.2573C113.892 24.0268 114.127 24.9198 114.127 25.9361C114.127 26.9524 113.892 27.8599 113.424 28.6584C112.968 29.4425 112.332 30.0595 111.516 30.5096C110.699 30.9452 109.762 31.163 108.704 31.163H104.719V35.9978H101.003ZM110.431 35.9978L107.298 30.0087L110.09 27.7437L114.689 35.9978H110.431ZM104.719 27.4606H108.503C108.838 27.4606 109.132 27.3953 109.387 27.2646C109.641 27.1339 109.842 26.9524 109.989 26.7201C110.137 26.4878 110.21 26.2265 110.21 25.9361C110.21 25.5005 110.05 25.1448 109.728 24.869C109.42 24.5786 109.012 24.4334 108.503 24.4334H104.719V27.4606Z" fill="white"/>
</svg>
